<svg width="363" height="169" viewBox="0 0 363 169" fill="none" xmlns="http://www.w3.org/2000/svg">
<path fill-rule="evenodd" clip-rule="evenodd" d="M76.0174 112.202L118.469 87.8096L107.955 69.5117L68.1511 92.3826C59.9626 97.0876 54.9141 105.811 54.9141 115.255V168.519H76.0174V112.202Z" fill="#F5F5F5"/>
<path fill-rule="evenodd" clip-rule="evenodd" d="M31.1322 94.6149C39.3167 99.3209 44.3622 108.042 44.3622 117.483L44.3622 159.035L23.2588 159.035L23.2588 90.0876L31.1322 94.6149Z" fill="#3E50FA"/>
<path fill-rule="evenodd" clip-rule="evenodd" d="M49.192 67.6301L16.5409 47.7207L5.72306 65.8404L35.6635 84.0032C43.8961 88.9974 54.1959 89.1091 62.5349 84.2946L125.883 47.7204L115.332 29.4443L49.192 67.6301Z" fill="#F5F5F5"/>
<path d="M171.901 49.3937H195.771C201.277 49.3937 205.407 50.5837 208.161 52.9637C210.914 55.3437 212.291 58.6571 212.291 62.9037C212.291 65.2837 211.941 67.2671 211.241 68.8537C210.541 70.3937 209.724 71.6537 208.791 72.6337C207.857 73.5671 206.924 74.2437 205.991 74.6637C205.104 75.0837 204.451 75.3637 204.031 75.5037V75.6437C204.777 75.7371 205.571 75.9704 206.411 76.3437C207.297 76.7171 208.114 77.3237 208.861 78.1637C209.607 78.9571 210.214 80.0071 210.681 81.3137C211.194 82.6204 211.451 84.2537 211.451 86.2137C211.451 89.1537 211.661 91.8371 212.081 94.2637C212.547 96.6437 213.247 98.3471 214.181 99.3737H204.801C204.147 98.3004 203.751 97.1104 203.611 95.8037C203.517 94.4971 203.471 93.2371 203.471 92.0237C203.471 89.7371 203.331 87.7771 203.051 86.1437C202.771 84.4637 202.257 83.0871 201.511 82.0137C200.764 80.8937 199.737 80.0771 198.431 79.5637C197.171 79.0504 195.537 78.7937 193.531 78.7937H180.651V99.3737H171.901V49.3937ZM180.651 72.1437H195.001C197.801 72.1437 199.924 71.4904 201.371 70.1837C202.817 68.8304 203.541 66.8237 203.541 64.1637C203.541 62.5771 203.307 61.2937 202.841 60.3137C202.374 59.2871 201.721 58.4937 200.881 57.9337C200.087 57.3737 199.154 57.0004 198.081 56.8137C197.054 56.6271 195.981 56.5337 194.861 56.5337H180.651V72.1437Z" fill="#3E50FA"/>
<path d="M244.918 78.0937C244.824 76.8337 244.544 75.6204 244.078 74.4537C243.658 73.2871 243.051 72.2837 242.258 71.4437C241.511 70.5571 240.578 69.8571 239.458 69.3437C238.384 68.7837 237.171 68.5037 235.818 68.5037C234.418 68.5037 233.134 68.7604 231.968 69.2737C230.848 69.7404 229.868 70.4171 229.028 71.3037C228.234 72.1437 227.581 73.1471 227.068 74.3137C226.601 75.4804 226.344 76.7404 226.298 78.0937H244.918ZM226.298 83.3437C226.298 84.7437 226.484 86.0971 226.858 87.4037C227.278 88.7104 227.884 89.8537 228.678 90.8337C229.471 91.8137 230.474 92.6071 231.688 93.2137C232.901 93.7737 234.348 94.0537 236.028 94.0537C238.361 94.0537 240.228 93.5637 241.628 92.5837C243.074 91.5571 244.148 90.0404 244.848 88.0337H252.408C251.988 89.9937 251.264 91.7437 250.238 93.2837C249.211 94.8237 247.974 96.1304 246.528 97.2037C245.081 98.2304 243.448 99.0004 241.628 99.5137C239.854 100.074 237.988 100.354 236.028 100.354C233.181 100.354 230.661 99.8871 228.468 98.9537C226.274 98.0204 224.408 96.7137 222.868 95.0337C221.374 93.3537 220.231 91.3471 219.438 89.0137C218.691 86.6804 218.318 84.1137 218.318 81.3137C218.318 78.7471 218.714 76.3204 219.508 74.0337C220.348 71.7004 221.514 69.6704 223.008 67.9437C224.548 66.1704 226.391 64.7704 228.538 63.7437C230.684 62.7171 233.111 62.2037 235.818 62.2037C238.664 62.2037 241.208 62.8104 243.448 64.0237C245.734 65.1904 247.624 66.7537 249.118 68.7137C250.611 70.6737 251.684 72.9371 252.338 75.5037C253.038 78.0237 253.224 80.6371 252.898 83.3437H226.298Z" fill="#3E50FA"/>
<path d="M289.274 91.3237C289.274 92.3037 289.391 93.0037 289.624 93.4237C289.904 93.8437 290.418 94.0537 291.164 94.0537C291.398 94.0537 291.678 94.0537 292.004 94.0537C292.331 94.0537 292.704 94.0071 293.124 93.9137V99.4437C292.844 99.5371 292.471 99.6304 292.004 99.7237C291.584 99.8637 291.141 99.9804 290.674 100.074C290.208 100.167 289.741 100.237 289.274 100.284C288.808 100.33 288.411 100.354 288.084 100.354C286.451 100.354 285.098 100.027 284.024 99.3737C282.951 98.7204 282.251 97.5771 281.924 95.9437C280.338 97.4837 278.378 98.6037 276.044 99.3037C273.758 100.004 271.541 100.354 269.394 100.354C267.761 100.354 266.198 100.12 264.704 99.6537C263.211 99.2337 261.881 98.6037 260.714 97.7637C259.594 96.8771 258.684 95.7804 257.984 94.4737C257.331 93.1204 257.004 91.5571 257.004 89.7837C257.004 87.5437 257.401 85.7237 258.194 84.3237C259.034 82.9237 260.108 81.8271 261.414 81.0337C262.768 80.2404 264.261 79.6804 265.894 79.3537C267.574 78.9804 269.254 78.7004 270.934 78.5137C272.381 78.2337 273.758 78.0471 275.064 77.9537C276.371 77.8137 277.514 77.6037 278.494 77.3237C279.521 77.0437 280.314 76.6237 280.874 76.0637C281.481 75.4571 281.784 74.5704 281.784 73.4037C281.784 72.3771 281.528 71.5371 281.014 70.8837C280.548 70.2304 279.941 69.7404 279.194 69.4137C278.494 69.0404 277.701 68.8071 276.814 68.7137C275.928 68.5737 275.088 68.5037 274.294 68.5037C272.054 68.5037 270.211 68.9704 268.764 69.9037C267.318 70.8371 266.501 72.2837 266.314 74.2437H258.334C258.474 71.9104 259.034 69.9737 260.014 68.4337C260.994 66.8937 262.231 65.6571 263.724 64.7237C265.264 63.7904 266.991 63.1371 268.904 62.7637C270.818 62.3904 272.778 62.2037 274.784 62.2037C276.558 62.2037 278.308 62.3904 280.034 62.7637C281.761 63.1371 283.301 63.7437 284.654 64.5837C286.054 65.4237 287.174 66.5204 288.014 67.8737C288.854 69.1804 289.274 70.7904 289.274 72.7037V91.3237ZM281.294 81.2437C280.081 82.0371 278.588 82.5271 276.814 82.7137C275.041 82.8537 273.268 83.0871 271.494 83.4137C270.654 83.5537 269.838 83.7637 269.044 84.0437C268.251 84.2771 267.551 84.6271 266.944 85.0937C266.338 85.5137 265.848 86.0971 265.474 86.8437C265.148 87.5437 264.984 88.4071 264.984 89.4337C264.984 90.3204 265.241 91.0671 265.754 91.6737C266.268 92.2804 266.874 92.7704 267.574 93.1437C268.321 93.4704 269.114 93.7037 269.954 93.8437C270.841 93.9837 271.634 94.0537 272.334 94.0537C273.221 94.0537 274.178 93.9371 275.204 93.7037C276.231 93.4704 277.188 93.0737 278.074 92.5137C279.008 91.9537 279.778 91.2537 280.384 90.4137C280.991 89.5271 281.294 88.4537 281.294 87.1937V81.2437Z" fill="#3E50FA"/>
<path d="M298.071 49.3937H306.051V99.3737H298.071V49.3937Z" fill="#3E50FA"/>
<path d="M167.141 113.394H207.601V120.954H191.711V163.374H182.961V120.954H167.141V113.394Z" fill="#F5F5F5"/>
<path d="M212.485 113.394H220.465V120.954H212.485V113.394ZM212.485 127.184H220.465V163.374H212.485V127.184Z" fill="#F5F5F5"/>
<path d="M253.59 139.294C253.263 137.054 252.353 135.374 250.86 134.254C249.413 133.087 247.57 132.504 245.33 132.504C244.303 132.504 243.206 132.69 242.04 133.064C240.873 133.39 239.8 134.044 238.82 135.024C237.84 135.957 237.023 137.287 236.37 139.014C235.716 140.694 235.39 142.91 235.39 145.664C235.39 147.157 235.553 148.65 235.88 150.144C236.253 151.637 236.813 152.967 237.56 154.134C238.353 155.3 239.356 156.257 240.57 157.004C241.783 157.704 243.253 158.054 244.98 158.054C247.313 158.054 249.226 157.33 250.72 155.884C252.26 154.437 253.216 152.407 253.59 149.794H261.57C260.823 154.507 259.026 158.124 256.18 160.644C253.38 163.117 249.646 164.354 244.98 164.354C242.133 164.354 239.613 163.887 237.42 162.954C235.273 161.974 233.453 160.667 231.96 159.034C230.466 157.354 229.323 155.37 228.53 153.084C227.783 150.797 227.41 148.324 227.41 145.664C227.41 142.957 227.783 140.414 228.53 138.034C229.276 135.654 230.396 133.6 231.89 131.874C233.383 130.1 235.226 128.724 237.42 127.744C239.66 126.717 242.273 126.204 245.26 126.204C247.36 126.204 249.343 126.484 251.21 127.044C253.123 127.557 254.803 128.35 256.25 129.424C257.743 130.497 258.956 131.85 259.89 133.484C260.823 135.117 261.383 137.054 261.57 139.294H253.59Z" fill="#F5F5F5"/>
<path d="M268.266 113.394H276.246V141.814L290.666 127.184H300.466L286.606 140.484L301.796 163.374H292.066L281.006 145.804L276.246 150.424V163.374H268.266V113.394Z" fill="#F5F5F5"/>
<path d="M330.504 142.094C330.41 140.834 330.13 139.62 329.664 138.454C329.244 137.287 328.637 136.284 327.844 135.444C327.097 134.557 326.164 133.857 325.044 133.344C323.97 132.784 322.757 132.504 321.404 132.504C320.004 132.504 318.72 132.76 317.554 133.274C316.434 133.74 315.454 134.417 314.614 135.304C313.82 136.144 313.167 137.147 312.654 138.314C312.187 139.48 311.93 140.74 311.884 142.094H330.504ZM311.884 147.344C311.884 148.744 312.07 150.097 312.444 151.404C312.864 152.71 313.47 153.854 314.264 154.834C315.057 155.814 316.06 156.607 317.274 157.214C318.487 157.774 319.934 158.054 321.614 158.054C323.947 158.054 325.814 157.564 327.214 156.584C328.66 155.557 329.734 154.04 330.434 152.034H337.994C337.574 153.994 336.85 155.744 335.824 157.284C334.797 158.824 333.56 160.13 332.114 161.204C330.667 162.23 329.034 163 327.214 163.514C325.44 164.074 323.574 164.354 321.614 164.354C318.767 164.354 316.247 163.887 314.054 162.954C311.86 162.02 309.994 160.714 308.454 159.034C306.96 157.354 305.817 155.347 305.024 153.014C304.277 150.68 303.904 148.114 303.904 145.314C303.904 142.747 304.3 140.32 305.094 138.034C305.934 135.7 307.1 133.67 308.594 131.944C310.134 130.17 311.977 128.77 314.124 127.744C316.27 126.717 318.697 126.204 321.404 126.204C324.25 126.204 326.794 126.81 329.034 128.024C331.32 129.19 333.21 130.754 334.704 132.714C336.197 134.674 337.27 136.937 337.924 139.504C338.624 142.024 338.81 144.637 338.484 147.344H311.884Z" fill="#F5F5F5"/>
<path d="M340.91 127.184H346.93V116.334H354.91V127.184H362.12V133.134H354.91V152.454C354.91 153.294 354.933 154.017 354.98 154.624C355.073 155.23 355.237 155.744 355.47 156.164C355.75 156.584 356.147 156.91 356.66 157.144C357.173 157.33 357.873 157.424 358.76 157.424C359.32 157.424 359.88 157.424 360.44 157.424C361 157.377 361.56 157.284 362.12 157.144V163.304C361.233 163.397 360.37 163.49 359.53 163.584C358.69 163.677 357.827 163.724 356.94 163.724C354.84 163.724 353.137 163.537 351.83 163.164C350.57 162.744 349.567 162.16 348.82 161.414C348.12 160.62 347.63 159.64 347.35 158.474C347.117 157.307 346.977 155.977 346.93 154.484V133.134H340.91V127.184Z" fill="#F5F5F5"/>
</svg>
